<svg width="40" height="40" viewBox="0 0 40 40" fill="none" xmlns="http://www.w3.org/2000/svg">
<path d="M20 36C24.2435 36 28.3131 34.3143 31.3137 31.3137C34.3143 28.3131 36 24.2435 36 20C36 15.7565 34.3143 11.6869 31.3137 8.68629C28.3131 5.68571 24.2435 4 20 4C15.7565 4 11.6869 5.68571 8.68629 8.68629C5.68571 11.6869 4 15.7565 4 20C4 24.2435 5.68571 28.3131 8.68629 31.3137C11.6869 34.3143 15.7565 36 20 36ZM20 40C8.954 40 0 31.046 0 20C0 8.954 8.954 0 20 0C31.046 0 40 8.954 40 20C40 31.046 31.046 40 20 40ZM13.78 22.34L8.784 20.782C7.704 20.452 7.698 19.708 9.026 19.174L28.492 11.654C29.62 11.194 30.264 11.776 29.898 13.234L26.582 28.874C26.35 29.988 25.68 30.254 24.75 29.74L19.648 25.964L17.27 28.26C17.026 28.496 16.828 28.698 16.452 28.748C16.078 28.8 15.77 28.688 15.544 28.068L13.804 22.326L13.78 22.34Z" fill="#FF4F79"/>
</svg>
