<svg width="649" height="689" viewBox="0 0 649 689" fill="none" xmlns="http://www.w3.org/2000/svg">
<path d="M224.074 446.241L314.852 476.5C314.852 476.5 541.796 431.111 572.056 431.111C602.315 431.111 602.315 461.371 572.056 491.63C541.796 521.889 435.889 612.667 345.111 612.667C254.333 612.667 193.815 567.278 133.296 567.278H-18" stroke="#253237" stroke-width="26" stroke-linecap="round" stroke-linejoin="round"/>
<path d="M-18 385.722C12.2593 355.463 72.7778 310.074 133.296 310.074C193.815 310.074 337.546 370.593 360.241 400.852C382.935 431.111 314.852 476.5 314.852 476.5M163.556 219.296V98.2593C163.556 90.234 166.744 82.5374 172.418 76.8627C178.093 71.188 185.79 68 193.815 68H556.926C564.951 68 572.648 71.188 578.322 76.8627C583.997 82.5374 587.185 90.234 587.185 98.2593V340.333" stroke="#253237" stroke-width="26" stroke-linecap="round" stroke-linejoin="round"/>
<path d="M299.722 68H451.018V204.167H299.722V68Z" stroke="#FF4F79" stroke-width="26" stroke-linecap="round" stroke-linejoin="round"/>
</svg>
