<svg width="220" height="42" viewBox="0 0 220 42" fill="none" xmlns="http://www.w3.org/2000/svg">
<g clip-path="url(#clip0_0_14)">
<path fill-rule="evenodd" clip-rule="evenodd" d="M33.8055 42.0233C34.2592 42.0424 34.7055 41.9027 35.0695 41.6277L34.7477 40.953C34.4859 41.1625 34.1622 41.2772 33.8285 41.2787C33.4479 41.2742 33.0743 41.174 32.7414 40.9872C32.4084 40.8004 32.1266 40.5328 31.921 40.2084C32.7647 39.9989 33.5102 39.4991 34.03 38.7945C34.5499 38.0899 34.8117 37.2243 34.7707 36.3457C34.7707 35.8538 34.675 35.3666 34.4891 34.9121C34.3031 34.4576 34.0306 34.0446 33.687 33.6967C33.3434 33.3489 32.9356 33.0729 32.4867 32.8847C32.0378 32.6964 31.5566 32.5995 31.0707 32.5995C30.5848 32.5995 30.1037 32.6964 29.6548 32.8847C29.2059 33.0729 28.798 33.3489 28.4544 33.6967C28.1109 34.0446 27.8383 34.4576 27.6524 34.9121C27.4664 35.3666 27.3707 35.8538 27.3707 36.3457C27.3461 36.8435 27.4197 37.3412 27.5874 37.8098C27.7551 38.2784 28.0134 38.7084 28.3473 39.0746C28.6812 39.4408 29.0839 39.7359 29.5318 39.9425C29.9797 40.1492 30.4638 40.2633 30.9558 40.2782C31.2562 40.7837 31.676 41.2057 32.1775 41.5063C32.6789 41.8069 33.2462 41.9765 33.8285 42L33.8055 42.0233ZM31.0248 39.5568C30.6296 39.5465 30.241 39.453 29.8834 39.2824C29.5259 39.1118 29.2073 38.8677 28.948 38.5658C28.6886 38.2638 28.4941 37.9104 28.3769 37.5283C28.2597 37.1461 28.2223 36.7434 28.267 36.3457C28.2037 35.9405 28.2278 35.5261 28.3379 35.1312C28.4479 34.7363 28.6412 34.3702 28.9044 34.0582C29.1676 33.7462 29.4945 33.4957 29.8625 33.3239C30.2306 33.1521 30.631 33.0632 31.0363 33.0632C31.4415 33.0632 31.842 33.1521 32.21 33.3239C32.578 33.4957 32.9049 33.7462 33.1681 34.0582C33.4313 34.3702 33.6246 34.7363 33.7347 35.1312C33.8447 35.5261 33.8689 35.9405 33.8055 36.3457C33.8504 36.7453 33.8123 37.1499 33.6937 37.5337C33.5751 37.9174 33.3786 38.2718 33.1168 38.5742C32.855 38.8765 32.5336 39.1201 32.1733 39.2893C31.8131 39.4586 31.4218 39.5497 31.0248 39.5568Z" fill="black"/>
<path fill-rule="evenodd" clip-rule="evenodd" d="M41.3664 40.3014C41.7669 40.3426 42.1714 40.2898 42.5484 40.1471C42.9255 40.0044 43.2651 39.7756 43.5407 39.4785C43.8163 39.1815 44.0206 38.8241 44.1378 38.4341C44.2549 38.0441 44.2817 37.6321 44.216 37.2299V32.5762H43.3887V37.3928C43.4232 37.6753 43.3956 37.9621 43.3079 38.2326C43.2202 38.5031 43.0744 38.7505 42.8812 38.9573C42.6879 39.1641 42.4519 39.3251 42.19 39.4287C41.9282 39.5324 41.6469 39.5761 41.3664 39.5568C39.9415 39.5568 39.298 38.8122 39.298 37.2299V32.5762H38.4247V37.2299C38.3559 37.6407 38.3836 38.0621 38.5056 38.4601C38.6276 38.858 38.8404 39.2212 39.1269 39.5203C39.4134 39.8195 39.7654 40.046 40.1545 40.1817C40.5435 40.3174 40.9587 40.3584 41.3664 40.3014Z" fill="black"/>
<path fill-rule="evenodd" clip-rule="evenodd" d="M48.6514 37.5091L49.6166 34.903C49.8235 34.3213 49.9614 33.9723 50.0763 33.5767C50.1912 33.9258 50.3061 34.2515 50.5359 34.903L51.4781 37.5091H48.6514ZM46.8129 40.1618H47.6862L48.3757 38.277H51.7999L52.4893 40.1618H53.4545L50.5589 32.5762H49.7086L46.8129 40.1618Z" fill="black"/>
<path fill-rule="evenodd" clip-rule="evenodd" d="M56.3042 40.1618H60.1421V39.3939H57.1775V32.5297H56.3042V40.1618Z" fill="black"/>
<path d="M64.7843 32.5297H63.911V40.1618H64.7843V32.5297Z" fill="black"/>
<path fill-rule="evenodd" clip-rule="evenodd" d="M70.5296 40.1618H71.4259V33.2743H73.5631V32.5297H68.3923V33.2743H70.5296V40.1618Z" fill="black"/>
<path fill-rule="evenodd" clip-rule="evenodd" d="M78.3432 40.1618H79.2395V37.2765L81.6985 32.5297H80.8482L78.8259 36.4155L76.8035 32.5297H75.8153L78.3432 37.2765V40.1618Z" fill="black"/>
<path fill-rule="evenodd" clip-rule="evenodd" d="M90.3625 40.1618H91.2588V36.5086H95.5103V40.1618H96.4066V32.5297H95.5103V35.764H91.2588V32.5297H90.3625V40.1618Z" fill="black"/>
<path fill-rule="evenodd" clip-rule="evenodd" d="M100.773 40.1618H104.726V39.3939H101.669V36.4853H104.289V35.7407H101.669V33.2743H104.657V32.5297H100.773V40.1618Z" fill="black"/>
<path fill-rule="evenodd" clip-rule="evenodd" d="M108.679 40.1618H109.552V36.6483H109.667C110.172 36.6483 110.31 36.6483 111.184 37.9979L112.7 40.1618H113.734L111.873 37.5325C111.659 37.178 111.396 36.8566 111.092 36.5785C111.363 36.5976 111.634 36.5601 111.89 36.4682C112.146 36.3762 112.381 36.2319 112.579 36.0441C112.778 35.8563 112.936 35.6292 113.043 35.3768C113.151 35.1245 113.207 34.8523 113.206 34.5774C113.206 33.2976 112.287 32.553 110.701 32.553H108.656V40.1851L108.679 40.1618ZM109.552 35.9037V33.2743H110.609C111.758 33.2743 112.31 33.7164 112.31 34.5774C112.31 35.4383 111.804 35.9037 110.678 35.9037H109.552Z" fill="black"/>
<path fill-rule="evenodd" clip-rule="evenodd" d="M117.388 40.1618H121.341V39.3939H118.262V36.4853H120.882V35.7407H118.262V33.2743H121.249V32.5297H117.388V40.1618Z" fill="black"/>
<path fill-rule="evenodd" clip-rule="evenodd" d="M131.154 37.5091L132.097 34.903C132.303 34.3213 132.441 33.9723 132.556 33.5767C132.671 33.9258 132.786 34.2515 133.016 34.903L133.958 37.5091H131.154ZM129.316 40.1618H130.189L130.879 38.277H134.303L134.992 40.1618H135.957L133.039 32.5762H132.188L129.316 40.1618Z" fill="black"/>
<path fill-rule="evenodd" clip-rule="evenodd" d="M139.428 40.1618H140.186V34.5773C140.186 34.205 140.186 33.8792 140.186 33.7396C140.324 33.9723 140.554 34.4144 140.783 34.7169L144.506 40.1618H145.311V32.5762H144.506V37.8349C144.506 38.3933 144.506 38.7191 144.506 38.8587C144.369 38.626 144.162 38.2537 143.794 37.7418L140.186 32.5762H139.313L139.428 40.1618Z" fill="black"/>
<path fill-rule="evenodd" clip-rule="evenodd" d="M149.746 40.1618H151.447C154.457 40.1618 155.767 38.4632 155.767 36.2526C155.767 34.0421 154.48 32.5762 151.516 32.5762H149.746V40.2083V40.1618ZM150.619 39.4172V33.251H151.47C153.768 33.251 154.848 34.1817 154.848 36.2759C154.848 38.3701 153.699 39.4172 151.539 39.4172H150.619Z" fill="black"/>
<path fill-rule="evenodd" clip-rule="evenodd" d="M164.477 40.1618H165.282V34.5773C165.282 34.205 165.282 33.8792 165.282 33.7396C165.419 33.9723 165.649 34.4144 165.879 34.7169L169.602 40.1618H170.406V32.5762H169.602V37.8349C169.602 38.3933 169.602 38.7191 169.602 38.8587C169.464 38.626 169.257 38.2537 168.89 37.7418L165.465 32.5762H164.592L164.477 40.1618Z" fill="black"/>
<path fill-rule="evenodd" clip-rule="evenodd" d="M177.99 40.3014C178.495 40.3056 178.995 40.2045 179.46 40.0045C179.924 39.8044 180.343 39.5097 180.69 39.1386C181.037 38.7675 181.305 38.328 181.477 37.8475C181.649 37.3671 181.722 36.8558 181.69 36.3457C181.69 35.3522 181.3 34.3993 180.606 33.6967C179.913 32.9942 178.971 32.5995 177.99 32.5995C177.009 32.5995 176.068 32.9942 175.374 33.6967C174.68 34.3993 174.29 35.3522 174.29 36.3457C174.262 36.8559 174.337 37.3666 174.512 37.8459C174.687 38.3252 174.958 38.763 175.307 39.1318C175.656 39.5007 176.077 39.7929 176.542 39.9901C177.008 40.1873 177.509 40.2854 178.013 40.2782L177.99 40.3014ZM177.99 39.5568C177.595 39.5465 177.206 39.453 176.849 39.2824C176.491 39.1118 176.173 38.8677 175.913 38.5658C175.654 38.2638 175.46 37.9104 175.342 37.5283C175.225 37.1461 175.188 36.7434 175.232 36.3457C175.169 35.9405 175.193 35.5261 175.303 35.1312C175.413 34.7363 175.607 34.3702 175.87 34.0582C176.133 33.7462 176.46 33.4957 176.828 33.3239C177.196 33.1521 177.596 33.0632 178.002 33.0632C178.407 33.0632 178.807 33.1521 179.175 33.3239C179.543 33.4957 179.87 33.7462 180.134 34.0582C180.397 34.3702 180.59 34.7363 180.7 35.1312C180.81 35.5261 180.834 35.9405 180.771 36.3457C180.816 36.7472 180.777 37.1538 180.657 37.5391C180.537 37.9245 180.339 38.28 180.074 38.5827C179.81 38.8854 179.486 39.1285 179.123 39.2963C178.76 39.4642 178.366 39.5529 177.967 39.5568H177.99Z" fill="black"/>
<path fill-rule="evenodd" clip-rule="evenodd" d="M186.654 40.1619H187.458L188.952 34.9031C189.136 34.2749 189.32 33.4837 189.32 33.4372C189.32 33.4372 189.481 34.2981 189.642 34.9031L191.113 40.0688H191.917L193.985 32.4366H193.043L191.733 37.5092C191.572 38.1375 191.48 38.789 191.48 38.8588C191.48 38.8588 191.342 38.1142 191.158 37.5092L189.826 32.5763H188.906L187.458 37.6721C187.298 38.2306 187.137 38.9519 187.137 38.9984C187.137 38.9984 186.999 38.2306 186.861 37.6721L185.574 32.5763H184.609L186.654 40.1619Z" fill="black"/>
<path fill-rule="evenodd" clip-rule="evenodd" d="M11.2838 11.7973L1.9994 0.325806H0.114929V24.9906H1.9994V3.11805H2.06834L11.2838 14.6361L20.4993 3.11805H20.5683V24.9906H22.4757V0.325806H20.5683L11.2838 11.7973Z" fill="black"/>
<path fill-rule="evenodd" clip-rule="evenodd" d="M40.585 0.139648H39.5508L28.29 24.9906H30.2434L34.1042 16.451H45.9626L49.8235 24.9906H51.7769L40.585 0.139648ZM45.2961 14.8687H34.8396L40.0564 3.23439L45.2961 14.8687Z" fill="black"/>
<path fill-rule="evenodd" clip-rule="evenodd" d="M73.5401 0.325806H71.1731L59.4986 12.6117V0.325806H57.5911V24.9906H59.4986V12.6117L72.2302 24.9906H74.6432L61.9116 12.6117L73.5401 0.325806Z" fill="black"/>
<path fill-rule="evenodd" clip-rule="evenodd" d="M92.8904 0.325806H79.6072V24.9906H93.1892V23.4084H81.5147V13.3795H92.6147V11.7973H81.5147V1.90808H92.8904V0.325806Z" fill="black"/>
<path fill-rule="evenodd" clip-rule="evenodd" d="M118.607 0.325806V13.9613C118.607 20.9419 114.424 23.6178 110.287 23.6178C106.151 23.6178 101.991 20.6859 101.991 14.3103V0.325806H100.107V14.287C100.107 21.7097 104.703 25.3862 110.287 25.3862C115.251 25.3862 120.514 22.3147 120.514 13.7518V0.325806H118.607Z" fill="black"/>
<path fill-rule="evenodd" clip-rule="evenodd" d="M129.086 0.325741V24.9906H130.993V13.3562H135.59C141.91 13.3562 143.725 9.91245 143.725 6.7479C143.725 3.21106 141.427 0.232666 135.751 0.232666L129.086 0.325741ZM130.993 1.90801H135.751C140.048 1.90801 141.749 4.23488 141.749 6.86425C141.749 9.49361 140.048 11.867 135.59 11.867H130.993V1.90801Z" fill="black"/>
<path fill-rule="evenodd" clip-rule="evenodd" d="M153.446 0.325806H151.539V24.9906H165.465V23.4084H153.446V0.325806Z" fill="black"/>
<path d="M173.049 0.325806H171.165V24.9906H173.049V0.325806Z" fill="black"/>
<path fill-rule="evenodd" clip-rule="evenodd" d="M195.594 1.55901C193.881 0.557299 191.941 0.0203053 189.963 1.01542e-05C188.197 -0.0442178 186.484 0.61657 185.194 1.8398C183.904 3.06303 183.141 4.75064 183.069 6.53851C183.069 14.6826 194.675 11.6111 194.675 18.615C194.663 19.2821 194.52 19.9401 194.253 20.5502C193.986 21.1604 193.602 21.7104 193.122 22.1679C192.643 22.6254 192.077 22.9811 191.46 23.2141C190.842 23.4471 190.185 23.5527 189.527 23.5247C187.21 23.4256 185 22.5123 183.276 20.9418V23.2687C185.102 24.6015 187.277 25.3547 189.527 25.4327C190.434 25.4575 191.337 25.3005 192.185 24.971C193.032 24.6414 193.807 24.1457 194.464 23.5123C195.122 22.8788 195.65 22.1202 196.017 21.2797C196.384 20.4393 196.584 19.5338 196.605 18.615C196.605 9.98228 184.999 13.1236 184.999 6.53851C185.025 5.88722 185.181 5.24787 185.455 4.65847C185.73 4.06906 186.119 3.54162 186.6 3.10749C187.08 2.67337 187.641 2.34142 188.251 2.13137C188.86 1.92132 189.505 1.83746 190.147 1.88477C192.112 1.96373 194.012 2.61847 195.617 3.76954L195.594 1.55901Z" fill="black"/>
<path fill-rule="evenodd" clip-rule="evenodd" d="M220 0.325806H199.799V1.90808H208.946V24.9906H210.853V1.90808H220V0.325806Z" fill="black"/>
<path d="M219.977 35.6012H197.34V36.4854H219.977V35.6012Z" fill="black"/>
<path d="M22.6366 35.6012H0V36.4854H22.6366V35.6012Z" fill="black"/>
</g>
<defs>
<clipPath id="clip0_0_14">
<rect width="220" height="42" fill="white"/>
</clipPath>
</defs>
</svg>
